<svg width="50" height="49" viewBox="0 0 50 49" fill="none" xmlns="http://www.w3.org/2000/svg">
<g clip-path="url(#clip0_62_359)">
<path d="M7.76919 31.2954C13.4453 35.2209 19.4036 37.2959 25 37.2959C30.5964 37.2959 36.5547 35.2209 42.2309 31.2954C46.4767 28.3589 49.0648 25.446 49.173 25.3234L50.0001 24.3858L49.173 23.4481C49.173 22.2799 46.4768 20.4126 42.2309 17.4762C36.5547 13.5506 30.5964 11.4757 25 11.4757C19.4036 11.4757 13.4453 13.5507 7.76919 17.4762C3.52344 20.4126 0.935177 23.3255 0.827081 23.4481L0 24.3858L0.826983 25.3234C0.93508 25.446 3.52334 28.3589 7.76919 31.2954ZM40.4804 19.7778C43.0479 21.5466 44.9923 23.335 46.0527 24.3858C44.9923 25.4367 43.0479 27.225 40.4804 28.9937C39.1794 29.8899 37.6148 30.8478 35.852 31.7063C37.3208 29.6245 38.1825 27.1021 38.1825 24.3858C38.1825 21.6695 37.3208 19.147 35.852 17.0653C37.6148 17.9237 39.1794 18.8817 40.4804 19.7778ZM25 14.3446C30.6487 14.3446 35.2531 18.8449 35.2531 24.3858C35.2531 29.9182 30.6574 34.427 25 34.427C19.3513 34.427 14.7469 29.9267 14.7469 24.3858C14.7469 18.8491 19.3465 14.3446 25 14.3446ZM14.1503 17.062C12.6801 19.1445 11.8175 21.6682 11.8175 24.3858C11.8175 27.1021 12.6792 29.6245 14.148 31.7063C12.3852 30.8478 10.8206 29.89 9.51963 28.9937C6.95226 27.2251 5.00799 25.437 3.94772 24.3864C4.95877 23.3861 6.77523 21.7159 9.18089 20.0218C10.6374 18.996 12.3098 17.9617 14.1503 17.062Z" fill="#0D0A36"/>
<path d="M24 37.2148H26.9294V44.3871H24V37.2148Z" fill="#0D0A36"/>
<path d="M12 40.2567L14.928 34.5216L17.5469 35.804L14.6188 41.5391L12 40.2567Z" fill="#0D0A36"/>
<path d="M3.25 34.6283L7.64417 28.8904L9.98773 30.6118L5.59356 36.3496L3.25 34.6283Z" fill="#0D0A36"/>
<path d="M33.5 34.0902L36.1189 32.8078L39.047 38.5429L36.428 39.8253L33.5 34.0902Z" fill="#0D0A36"/>
<path d="M41.5 30.6118L43.8436 28.8904L48.2377 34.6283L45.8942 36.3496L41.5 30.6118Z" fill="#0D0A36"/>
</g>
<defs>
<clipPath id="clip0_62_359">
<rect width="50" height="48.9668" fill="white"/>
</clipPath>
</defs>
</svg>
