<svg width="50" height="50" viewBox="0 0 50 50" fill="none" xmlns="http://www.w3.org/2000/svg">
<path d="M43.0714 11.0549C38.7429 7.40667 31.8982 6.78864 31.6089 6.76242C31.1518 6.72122 30.7179 6.99278 30.5304 7.43102C30.5232 7.446 30.1411 8.60902 29.7714 9.73083C34.8018 10.6541 38.2196 12.703 38.4018 12.8153C39.2554 13.336 39.5411 14.484 39.0429 15.3774C38.7125 15.9729 38.1143 16.3063 37.5 16.3063C37.1946 16.3063 36.8875 16.2257 36.6054 16.0534C36.5554 16.0216 31.5411 13.0288 25.0036 13.0288C18.4643 13.0288 13.4482 16.0235 13.3982 16.0534C12.5464 16.5722 11.4536 16.2669 10.9589 15.3717C10.4643 14.4803 10.7518 13.336 11.6018 12.8153C11.7839 12.703 15.2143 10.6466 20.2589 9.72521C19.8696 8.59029 19.4768 7.446 19.4696 7.43102C19.2821 6.99091 18.8482 6.71373 18.3911 6.76242C18.1018 6.78677 11.2571 7.4048 6.87143 11.1036C4.57857 13.3248 0 26.3108 0 37.5383C0 37.7368 0.0482144 37.9297 0.142857 38.102C3.30536 43.9265 11.9268 45.4509 13.8911 45.5165C13.9036 45.5184 13.9143 45.5184 13.925 45.5184C14.2714 45.5184 14.5982 45.3442 14.8036 45.0502L16.9286 42.0312C12.2679 40.8532 9.80357 39.001 9.65536 38.8867C8.8625 38.2743 8.69107 37.102 9.275 36.2686C9.85714 35.4389 10.9714 35.2554 11.7643 35.864C11.8304 35.909 16.3786 39.2482 25 39.2482C33.6554 39.2482 38.1911 35.8959 38.2357 35.8622C39.0286 35.2591 40.1464 35.4408 40.7268 36.276C41.3054 37.1076 41.1375 38.2725 40.3482 38.883C40.2 38.9972 37.7482 40.8457 33.0982 42.0237L35.1964 45.0483C35.4018 45.3442 35.7286 45.5165 36.075 45.5165C36.0875 45.5165 36.0982 45.5165 36.1089 45.5146C38.075 45.4491 46.6964 43.9246 49.8571 38.1002C49.9518 37.9279 50 37.735 50 37.5364C50 26.3108 45.4214 13.3248 43.0714 11.0549ZM17.8571 33.6298C15.8839 33.6298 14.2857 31.5341 14.2857 28.9477C14.2857 26.3614 15.8839 24.2657 17.8571 24.2657C19.8304 24.2657 21.4286 26.3614 21.4286 28.9477C21.4286 31.5341 19.8304 33.6298 17.8571 33.6298ZM32.1429 33.6298C30.1696 33.6298 28.5714 31.5341 28.5714 28.9477C28.5714 26.3614 30.1696 24.2657 32.1429 24.2657C34.1161 24.2657 35.7143 26.3614 35.7143 28.9477C35.7143 31.5341 34.1161 33.6298 32.1429 33.6298Z" fill="#0D0A36"/>
</svg>
