<svg width="50" height="50" viewBox="0 0 50 50" fill="none" xmlns="http://www.w3.org/2000/svg">
<path d="M48.0469 23.0469H26.9531V1.95312C26.9531 0.874414 26.0787 0 25 0C23.9213 0 23.0469 0.874414 23.0469 1.95312V23.0469H1.95312C0.874414 23.0469 0 23.9213 0 25C0 26.0787 0.874414 26.9531 1.95312 26.9531H23.0469V48.0469C23.0469 49.1256 23.9213 50 25 50C26.0787 50 26.9531 49.1256 26.9531 48.0469V26.9531H48.0469C49.1256 26.9531 50 26.0787 50 25C50 23.9213 49.1256 23.0469 48.0469 23.0469Z" fill="black"/>
</svg>
