<svg width="50" height="50" viewBox="0 0 50 50" fill="none" xmlns="http://www.w3.org/2000/svg">
<g clip-path="url(#clip0_115_403)">
<path d="M41.6667 0C37.0718 0 33.3334 3.73838 33.3334 8.3333C33.3334 12.319 39.2385 20.3859 40.6221 22.222C40.6218 22.815 40.6221 23.3974 40.6078 23.9318C40.5926 24.5065 41.0463 24.9857 41.6219 25.001C41.6311 25.001 41.6403 25.001 41.6505 25.001C42.212 25.001 42.6759 24.5523 42.6911 23.9868C42.7054 23.4384 42.7051 22.8397 42.7054 22.2298C44.0799 20.4063 50 12.3237 50 8.3333C50 3.73838 46.2616 0 41.6667 0ZM41.6667 20.1314C39.3768 16.9811 35.4167 10.9854 35.4167 8.3333C35.4167 4.88682 38.2202 2.0833 41.6667 2.0833C45.1132 2.0833 47.9167 4.88682 47.9167 8.3333C47.9167 10.9854 43.9565 16.981 41.6667 20.1314Z" fill="#0D0A36"/>
<path d="M41.6667 6.25C40.5182 6.25 39.5834 7.18486 39.5834 8.3333C39.5834 9.48174 40.5182 10.4166 41.6667 10.4166C42.8151 10.4166 43.75 9.48184 43.75 8.3333C43.75 7.18486 42.8151 6.25 41.6667 6.25Z" fill="#0D0A36"/>
<path d="M12.5 22.9167C9.05352 22.9167 6.25 25.7202 6.25 29.1667C6.25 32.6132 9.05352 35.4167 12.5 35.4167C15.9465 35.4167 18.75 32.6132 18.75 29.1667C18.75 25.7202 15.9465 22.9167 12.5 22.9167ZM12.5 33.3333C10.2021 33.3333 8.3333 31.4646 8.3333 29.1666C8.3333 26.8686 10.2021 25 12.5 25C14.7979 25 16.6667 26.8687 16.6667 29.1667C16.6667 31.4647 14.7979 33.3333 12.5 33.3333Z" fill="#0D0A36"/>
<path d="M28.2786 37.5428C27.7395 37.3332 27.1393 37.6008 26.9308 38.1379C26.4639 39.3443 25.88 40.7512 25.0926 42.04C24.7925 42.5314 24.9482 43.1723 25.4385 43.4724C25.6084 43.5762 25.7955 43.625 25.9807 43.625C26.3317 43.625 26.6744 43.448 26.8708 43.1266C27.7437 41.6963 28.3733 40.1826 28.8737 38.8907C29.0813 38.3545 28.8148 37.7513 28.2786 37.5428Z" fill="#0D0A36"/>
<path d="M22.405 45.1446C21.3612 45.9717 20.1752 46.5942 18.7775 47.0489C18.2302 47.2269 17.9311 47.8149 18.1091 48.3622C18.2525 48.8017 18.6605 49.0814 19.0999 49.0814C19.2067 49.0814 19.3155 49.0651 19.4224 49.0306C21.0367 48.5057 22.4751 47.7478 23.6989 46.7783C24.1496 46.4202 24.2259 45.7651 23.8689 45.3144C23.5087 44.8649 22.8546 44.7846 22.405 45.1446Z" fill="#0D0A36"/>
<path d="M31.8847 30.0222C30.1656 30.9978 29.2104 32.6914 28.6407 33.8796C28.3915 34.3984 28.6101 35.021 29.129 35.2691C29.2745 35.3394 29.4281 35.3719 29.5786 35.3719C29.9672 35.3719 30.3395 35.1542 30.5185 34.7809C31.2418 33.2723 31.9803 32.3639 32.9141 31.8328C33.4136 31.549 33.5896 30.9132 33.3048 30.4127C33.022 29.9123 32.3883 29.7363 31.8847 30.0222Z" fill="#0D0A36"/>
<path d="M41.2801 27.4435C40.8071 27.123 40.1571 27.2461 39.8335 27.7222C39.4907 28.2288 38.7888 28.9256 36.6657 29.1158C36.093 29.1677 35.6699 29.6732 35.7217 30.247C35.7705 30.7882 36.2252 31.195 36.7583 31.195C36.7899 31.195 36.8214 31.194 36.853 31.1909C39.1082 30.9885 40.6473 30.2357 41.5588 28.8898C41.8814 28.4139 41.7562 27.7659 41.2801 27.4435Z" fill="#0D0A36"/>
<path d="M14.9683 47.9302C18.2551 44.4251 25 36.3614 25 29.1667C25 22.1578 19.5089 16.6667 12.5 16.6667C5.49111 16.6667 0 22.1578 0 29.1667C0 38.4694 11.3037 49.2605 11.7849 49.7152C11.9853 49.9055 12.2427 50.0001 12.5 50.0001C13.2589 50.0001 13.9801 49.9736 14.6637 49.9218C15.2374 49.878 15.6677 49.3785 15.6239 48.8048C15.5927 48.3941 15.327 48.0739 14.9683 47.9302ZM12.5 47.4895C10.0393 44.9789 2.0833 36.3078 2.0833 29.1667C2.0833 23.3256 6.65898 18.75 12.5 18.75C18.341 18.75 22.9167 23.3256 22.9167 29.1667C22.9167 36.3078 14.9607 44.9788 12.5 47.4895Z" fill="#0D0A36"/>
</g>
<defs>
<clipPath id="clip0_115_403">
<rect width="50" height="50" fill="white"/>
</clipPath>
</defs>
</svg>
