<svg width="50" height="50" viewBox="0 0 50 50" fill="none" xmlns="http://www.w3.org/2000/svg">
<g clip-path="url(#clip0_100_376)">
<path d="M1.5625 8.81434H25.3521C26.069 12.0779 28.9835 14.528 32.4593 14.528C35.9351 14.528 38.8495 12.078 39.5665 8.81434H48.4375C49.3004 8.81434 50 8.11473 50 7.25184C50 6.38895 49.3004 5.68934 48.4375 5.68934H39.5657C38.8474 2.42743 35.9289 -0.024231 32.4593 -0.024231C28.9878 -0.024231 26.0707 2.42704 25.3526 5.68934H1.5625C0.699609 5.68934 0 6.38895 0 7.25184C0 8.11473 0.699609 8.81434 1.5625 8.81434ZM28.3083 7.25595C28.3083 7.25038 28.3084 7.24471 28.3084 7.23915C28.3152 4.95721 30.1772 3.10087 32.4593 3.10087C34.7381 3.10087 36.6002 4.95468 36.6101 7.23554L36.6104 7.25848C36.6067 9.54432 34.746 11.4031 32.4593 11.4031C30.1735 11.4031 28.3134 9.54618 28.3082 7.26171L28.3083 7.25595ZM48.4375 41.1855H39.5657C38.8473 37.9237 35.9289 35.472 32.4593 35.472C28.9878 35.472 26.0707 37.9233 25.3526 41.1855H1.5625C0.699609 41.1855 0 41.885 0 42.748C0 43.611 0.699609 44.3105 1.5625 44.3105H25.3521C26.069 47.5741 28.9835 50.0242 32.4593 50.0242C35.9351 50.0242 38.8495 47.5741 39.5665 44.3105H48.4375C49.3004 44.3105 50 43.611 50 42.748C50 41.885 49.3004 41.1855 48.4375 41.1855ZM32.4593 46.8992C30.1735 46.8992 28.3134 45.0423 28.3082 42.7578L28.3083 42.7521C28.3083 42.7465 28.3084 42.7409 28.3084 42.7353C28.3152 40.4534 30.1772 38.597 32.4593 38.597C34.7381 38.597 36.6002 40.4508 36.6101 42.7315L36.6104 42.7545C36.607 45.0406 34.7462 46.8992 32.4593 46.8992ZM48.4375 23.4375H24.6479C23.931 20.1739 21.0165 17.7239 17.5407 17.7239C14.0649 17.7239 11.1505 20.1739 10.4335 23.4375H1.5625C0.699609 23.4375 0 24.1371 0 25C0 25.863 0.699609 26.5625 1.5625 26.5625H10.4343C11.1527 29.8243 14.0711 32.2761 17.5407 32.2761C21.0122 32.2761 23.9293 29.8247 24.6474 26.5625H48.4375C49.3004 26.5625 50 25.863 50 25C50 24.1371 49.3004 23.4375 48.4375 23.4375ZM21.6917 24.9959C21.6917 25.0015 21.6916 25.0071 21.6916 25.0127C21.6848 27.2946 19.8228 29.151 17.5407 29.151C15.2619 29.151 13.3998 27.2972 13.3899 25.0164L13.3896 24.9935C13.3931 22.7074 15.2539 20.8489 17.5407 20.8489C19.8265 20.8489 21.6866 22.7057 21.6918 24.9903L21.6917 24.9959Z" fill="black"/>
</g>
<defs>
<clipPath id="clip0_100_376">
<rect width="50" height="50" fill="white"/>
</clipPath>
</defs>
</svg>
