<svg width="50" height="50" viewBox="0 0 50 50" fill="none" xmlns="http://www.w3.org/2000/svg">
<g clip-path="url(#clip0_91_413)">
<path d="M15.5172 37.931H22.4138V48.2759H15.5172V37.931Z" fill="#805333"/>
<path d="M28.4483 25C29.2726 28.515 31.4422 31.5668 34.4914 33.5L34.4828 39.3621C33.9854 39.5278 33.4639 39.6094 32.9397 39.6034C31.4483 39.6213 29.973 39.2938 28.6293 38.6466L26.681 39.5776C26.4023 40.8198 25.928 42.01 25.2759 43.1034H21.9052C20.7863 42.061 19.7991 40.8856 18.9655 39.6034C16.9655 42.7328 12.931 43.1034 12.931 43.1034C11.2845 41.3793 11.5862 41.0603 11.25 39.5776L9.30172 38.6466C8.53968 39.0169 7.7304 39.2808 6.89655 39.431L1.31897 37.931C0.704468 37.1991 0.254634 36.3435 0 35.4224C4.85345 33.2414 9.48276 28.4483 10.3448 25H28.4483Z" fill="#33907C"/>
<path d="M25 16.6845C27.2241 20.7797 30.7082 24.0495 34.9362 26.0095C34.1926 27.8803 32.3882 29.1128 30.375 29.125C30.232 29.1425 30.088 29.1495 29.944 29.1457C27.753 29.2444 25.6081 28.4958 23.9543 27.0552C23.9543 27.0552 22.9586 32.2828 18.9655 34.3733C14.9724 32.2828 13.975 27.0552 13.975 27.0552C12.3212 28.4958 10.1763 29.2444 7.98534 29.1457C7.84135 29.1495 7.69728 29.1425 7.55431 29.125C5.54115 29.1128 3.73673 27.8803 2.9931 26.0095C7.25404 24.039 10.7576 20.7348 12.9741 16.5966L25 16.6845Z" fill="#14A085"/>
<path d="M16.4974 8.75769C14.4086 10.5525 11.9681 13.3267 6.99139 15.5517C7.76634 17.4784 9.66596 18.7127 11.7414 18.6379C12.8767 18.5384 13.9783 18.2006 14.9742 17.6465C15.1332 19.2785 15.9679 20.7696 17.2759 21.7586H20.6552C21.9632 20.7696 22.7978 19.2785 22.9569 17.6465C23.9528 18.2006 25.0544 18.5384 26.1897 18.6379C28.2651 18.7127 30.1647 17.4784 30.9397 15.5517C25.9629 13.3249 23.5259 10.5517 21.4336 8.75769H16.4974Z" fill="#26B99A"/>
<path d="M19.3871 0.272369L20.8853 3.46202C20.9506 3.60509 21.0834 3.70581 21.2388 3.73013L24.6009 4.2422C24.7788 4.27552 24.9238 4.40428 24.978 4.57702C25.0321 4.74975 24.9866 4.93827 24.8595 5.0672L22.419 7.5672C22.3099 7.68018 22.261 7.83822 22.2871 7.99306L22.8612 11.5103C22.8962 11.6886 22.8258 11.8712 22.6802 11.9799C22.5345 12.0886 22.3394 12.1041 22.1784 12.0198L19.1853 10.3681C19.048 10.2921 18.8813 10.2921 18.744 10.3681L15.7509 12.0198C15.5899 12.1041 15.3948 12.0886 15.2491 11.9799C15.1035 11.8712 15.0331 11.6886 15.0681 11.5103L15.6422 7.99306C15.6683 7.83822 15.6194 7.68018 15.5103 7.5672L13.0698 5.0672C12.9428 4.93827 12.8972 4.74975 12.9513 4.57702C13.0055 4.40428 13.1505 4.27552 13.3285 4.2422L16.6905 3.73013C16.8459 3.70581 16.9787 3.60509 17.044 3.46202L18.5422 0.276679C18.616 0.109862 18.7809 0.00191323 18.9633 0.000982626C19.1457 5.20223e-05 19.3116 0.106313 19.3871 0.272369Z" fill="#F0C419"/>
<path d="M18.9655 24.9637C20.0682 24.9637 20.9621 24.0278 20.9621 22.8732C20.9621 21.7187 20.0682 20.7827 18.9655 20.7827C17.8629 20.7827 16.969 21.7187 16.969 22.8732C16.969 24.0278 17.8629 24.9637 18.9655 24.9637Z" fill="#F0C419"/>
<path d="M10.9802 39.6C12.0828 39.6 12.9767 38.664 12.9767 37.5095C12.9767 36.3549 12.0828 35.4189 10.9802 35.4189C9.87751 35.4189 8.98363 36.3549 8.98363 37.5095C8.98363 38.664 9.87751 39.6 10.9802 39.6Z" fill="#F0C419"/>
<path d="M26.9509 39.6C28.0535 39.6 28.9474 38.664 28.9474 37.5095C28.9474 36.3549 28.0535 35.4189 26.9509 35.4189C25.8482 35.4189 24.9543 36.3549 24.9543 37.5095C24.9543 38.664 25.8482 39.6 26.9509 39.6Z" fill="#F0C419"/>
<path d="M25.9526 24.9647C26.5039 24.9647 26.9509 24.4965 26.9509 23.919C26.9509 23.3415 26.5039 22.8733 25.9526 22.8733C25.4013 22.8733 24.9543 23.3415 24.9543 23.919C24.9543 24.4965 25.4013 24.9647 25.9526 24.9647Z" fill="#ECF0F1"/>
<path d="M11.9785 24.9647C12.5298 24.9647 12.9767 24.4965 12.9767 23.919C12.9767 23.3415 12.5298 22.8733 11.9785 22.8733C11.4271 22.8733 10.9802 23.3415 10.9802 23.919C10.9802 24.4965 11.4271 24.9647 11.9785 24.9647Z" fill="#ECF0F1"/>
<path d="M4.31033 49.9999H6.03447H21.5517V46.5516H6.89654L4.31033 49.9999Z" fill="#F0C419"/>
<path d="M6.03448 37.931H0.862069C0.385961 37.931 0 38.317 0 38.7931V49.1379C0 49.614 0.385961 50 0.862069 50H6.03448C6.51059 50 6.89655 49.614 6.89655 49.1379V38.7931C6.89655 38.317 6.51059 37.931 6.03448 37.931Z" fill="#E64C3C"/>
<path d="M49.1379 32.7585H35.3448C34.8687 32.7585 34.4828 33.1445 34.4828 33.6206V49.1379C34.4828 49.614 34.8687 49.9999 35.3448 49.9999H49.1379C49.614 49.9999 50 49.614 50 49.1379V33.6206C50 33.1445 49.614 32.7585 49.1379 32.7585Z" fill="#E64C3C"/>
<path d="M11.2069 46.5516H12.931V49.9999H11.2069V46.5516Z" fill="#955BA5"/>
<path d="M4.31034 37.931H2.58621V42.2414H0V43.9655H2.58621V50H4.31034V43.9655H6.89655V42.2414H4.31034V37.931Z" fill="#F0C419"/>
<path d="M50 40.5172H43.1034V33.6207H44.8276C46.4216 33.6303 47.8145 32.5461 48.1963 30.9984C48.5781 29.4507 47.8494 27.8431 46.4338 27.1102C45.0182 26.3773 43.2847 26.7103 42.2414 27.9155C41.1973 26.7201 39.4712 26.3937 38.0628 27.1255C36.6544 27.8572 35.9291 29.4572 36.307 30.9987C36.6849 32.5402 38.068 33.6233 39.6552 33.6207H41.3793V40.5172H34.4828V42.2413H41.3793V50H43.1034V42.2413H50V40.5172ZM44.8276 28.4482C45.7798 28.4482 46.5517 29.2202 46.5517 30.1724C46.5517 31.1246 45.7798 31.8965 44.8276 31.8965H43.1034V30.1724C43.1034 29.2202 43.8754 28.4482 44.8276 28.4482ZM37.931 30.1724C37.931 29.2202 38.703 28.4482 39.6552 28.4482C40.6074 28.4482 41.3793 29.2202 41.3793 30.1724V31.8965H39.6552C38.703 31.8965 37.931 31.1246 37.931 30.1724Z" fill="#F0C419"/>
<path d="M29.3103 43.1034H20.6897C20.2136 43.1034 19.8276 43.4894 19.8276 43.9655V49.1379C19.8276 49.614 20.2136 49.9999 20.6897 49.9999H29.3103C29.7865 49.9999 30.1724 49.614 30.1724 49.1379V43.9655C30.1724 43.4894 29.7865 43.1034 29.3103 43.1034Z" fill="#955BA5"/>
<path d="M24.1379 43.1034H25.8621V49.9999H24.1379V43.1034Z" fill="#F3D55B"/>
</g>
<defs>
<clipPath id="clip0_91_413">
<rect width="50" height="50" fill="white"/>
</clipPath>
</defs>
</svg>
