<svg width="50" height="50" viewBox="0 0 50 50" fill="none" xmlns="http://www.w3.org/2000/svg">
<g clip-path="url(#clip0_91_374)">
<path d="M22.0189 0C9.87803 0 0 9.87803 0 22.0189C0 34.1605 9.87803 44.0379 22.0189 44.0379C34.1605 44.0379 44.0379 34.1605 44.0379 22.0189C44.0379 9.87803 34.1605 0 22.0189 0ZM22.0189 39.9729C12.1192 39.9729 4.06504 31.9188 4.06504 22.019C4.06504 12.1193 12.1192 4.06504 22.0189 4.06504C31.9187 4.06504 39.9729 12.1192 39.9729 22.0189C39.9729 31.9187 31.9187 39.9729 22.0189 39.9729Z" fill="black"/>
<path d="M49.4045 46.5305L37.7514 34.8773C36.9573 34.0833 35.6714 34.0833 34.8773 34.8773C34.0833 35.6707 34.0833 36.958 34.8773 37.7514L46.5305 49.4045C46.9274 49.8015 47.4472 50 47.9675 50C48.4871 50 49.0074 49.8015 49.4045 49.4045C50.1985 48.6111 50.1985 47.3238 49.4045 46.5305Z" fill="black"/>
</g>
<defs>
<clipPath id="clip0_91_374">
<rect width="50" height="50" fill="white"/>
</clipPath>
</defs>
</svg>
