<svg width="51" height="38" viewBox="0 0 51 38" fill="none" xmlns="http://www.w3.org/2000/svg">
<g clip-path="url(#clip0_62_358)">
<path d="M25.9529 28.6891C28.3758 28.6891 30.3471 26.7586 30.3471 24.3857C30.3471 22.0129 28.3758 20.0824 25.9529 20.0824C23.53 20.0824 21.5587 22.0129 21.5587 24.3857C21.5587 26.7586 23.53 28.6891 25.9529 28.6891ZM25.9529 22.9513C26.7605 22.9513 27.4176 23.5948 27.4176 24.3857C27.4176 25.1767 26.7605 25.8202 25.9529 25.8202C25.1452 25.8202 24.4882 25.1767 24.4882 24.3857C24.4882 23.5948 25.1452 22.9513 25.9529 22.9513Z" fill="#0D0A36"/>
<path d="M8.72211 31.2953C14.3982 35.2208 20.3565 37.2958 25.9529 37.2958C31.5493 37.2958 37.5076 35.2208 43.1838 31.2953C47.4295 28.3589 50.0177 25.446 50.1259 25.3234L50.9529 24.3857L50.1259 23.4481C50.0178 23.3255 47.4296 20.4126 43.1838 17.4762C37.5076 13.5505 31.5493 11.4756 25.9529 11.4756C20.3565 11.4756 14.3982 13.5506 8.72211 17.4762C4.47638 20.4126 1.88812 23.3255 1.78002 23.4481L0.952942 24.3857L1.77992 25.3234C1.88802 25.446 4.47628 28.3589 8.72211 31.2953ZM41.4332 19.7778C44.0008 21.5466 45.9452 23.3349 47.0055 24.3857C45.9452 25.4366 44.0008 27.2249 41.4332 28.9937C40.1323 29.8898 38.5677 30.8478 36.8049 31.7062C38.2736 29.6245 39.1354 27.102 39.1354 24.3857C39.1354 21.6694 38.2736 19.147 36.8049 17.0652C38.5677 17.9237 40.1323 18.8816 41.4332 19.7778ZM25.9529 14.3445C31.6015 14.3445 36.2059 18.8448 36.2059 24.3857C36.2059 29.9181 31.6103 34.4269 25.9529 34.4269C20.3042 34.4269 15.6998 29.9266 15.6998 24.3857C15.6998 18.849 20.2994 14.3445 25.9529 14.3445ZM15.1032 17.062C13.633 19.1444 12.7704 21.6681 12.7704 24.3857C12.7704 27.102 13.6321 29.6245 15.1009 31.7062C13.3381 30.8478 11.7735 29.8899 10.4726 28.9937C7.90519 27.2251 5.96092 25.4369 4.90066 24.3863C5.91171 23.386 7.72815 21.7158 10.1338 20.0217C11.5903 18.996 13.2627 17.9617 15.1032 17.062Z" fill="#0D0A36"/>
<path d="M24.4882 0H27.4176V7.17227H24.4882V0Z" fill="#0D0A36"/>
<path d="M33.42 7.97649L36.348 2.24142L38.9668 3.52378L36.0388 9.25885L33.42 7.97649Z" fill="#0D0A36"/>
<path d="M42.3577 13.4839L46.7519 7.74604L49.0954 9.46738L44.7012 15.2052L42.3577 13.4839Z" fill="#0D0A36"/>
<path d="M12.9175 3.50961L15.5364 2.2272L18.4645 7.96228L15.8455 9.24468L12.9175 3.50961Z" fill="#0D0A36"/>
<path d="M2.81024 9.46742L5.15379 7.74608L9.54796 13.4839L7.2044 15.2052L2.81024 9.46742Z" fill="#0D0A36"/>
</g>
<defs>
<clipPath id="clip0_62_358">
<rect width="50" height="37.4596" fill="white" transform="translate(0.952942)"/>
</clipPath>
</defs>
</svg>
