<svg width="50" height="50" viewBox="0 0 50 50" fill="none" xmlns="http://www.w3.org/2000/svg">
<g clip-path="url(#clip0_244_412)">
<path d="M48.5657 30.434C47.8419 30.434 47.2552 31.0206 47.2552 31.7445V43.3808C47.2527 45.5508 45.4943 47.3097 43.3238 47.3123H6.55249C4.38198 47.3097 2.62356 45.5508 2.621 43.3808V9.23053C2.62356 7.06002 4.38198 5.3016 6.55249 5.29904H18.1883C18.9121 5.29904 19.4988 4.71238 19.4988 3.98854C19.4988 3.26469 18.9121 2.67804 18.1883 2.67804H6.55249C2.93531 2.68213 0.00409531 5.61335 0 9.23053V43.3808C0.00409531 46.998 2.93531 49.9292 6.55249 49.9333H43.3238C46.9409 49.9292 49.8722 46.998 49.8762 43.3808V31.745C49.8762 31.0212 49.2896 30.434 48.5657 30.434Z" fill="black"/>
<path d="M20.4919 23.538L39.6267 4.40265L45.7978 10.5738L26.663 29.7091L20.4919 23.538Z" fill="black"/>
<path d="M17.3698 32.8312L24.1895 30.9423L19.2587 26.0115L17.3698 32.8312Z" fill="black"/>
<path d="M47.504 1.15915C46.2237 -0.118073 44.151 -0.118073 42.8707 1.15915L41.4809 2.549L47.652 8.72011L49.0418 7.33027C50.3196 6.04997 50.3196 3.97723 49.0418 2.69694L47.504 1.15915Z" fill="black"/>
</g>
<defs>
<clipPath id="clip0_244_412">
<rect width="50" height="50" fill="white"/>
</clipPath>
</defs>
</svg>
