<svg width="50" height="50" viewBox="0 0 50 50" fill="none" xmlns="http://www.w3.org/2000/svg">
<g clip-path="url(#clip0_58_361)">
<path d="M42.6777 7.32231C37.9559 2.60048 31.6776 0 25 0C18.3224 0 12.0441 2.60048 7.32231 7.32231C2.60048 12.0441 0 18.3224 0 25C0 31.6776 2.60048 37.9559 7.32231 42.6777C12.0441 47.3995 18.3224 50 25 50C31.6776 50 37.9559 47.3995 42.6777 42.6777C47.3995 37.9559 50 31.6776 50 25C50 18.3224 47.3995 12.0441 42.6777 7.32231ZM10.8501 41.9235C11.6756 34.8206 17.7826 29.3365 25 29.3365C28.8048 29.3365 32.3826 30.8189 35.0739 33.5098C37.3474 35.7838 38.7814 38.7527 39.1502 41.9231C35.3165 45.134 30.3802 47.0703 25 47.0703C19.6198 47.0703 14.6839 45.1344 10.8501 41.9235ZM25 26.3191C20.8134 26.3191 17.4068 22.9126 17.4068 18.726C17.4068 14.539 20.8134 11.1328 25 11.1328C29.1866 11.1328 32.5932 14.539 32.5932 18.726C32.5932 22.9126 29.1866 26.3191 25 26.3191ZM41.6718 39.4466C40.9252 36.4368 39.3684 33.6617 37.1452 31.4384C35.3447 29.6379 33.2146 28.2871 30.8914 27.4406C33.6842 25.5466 35.5228 22.3469 35.5228 18.726C35.5228 12.9238 30.8022 8.20312 25 8.20312C19.1978 8.20312 14.4772 12.9238 14.4772 18.726C14.4772 22.3488 16.3174 25.5497 19.1124 27.4433C16.975 28.2223 14.9971 29.4266 13.2954 31.012C10.8311 33.3069 9.1198 36.2331 8.32634 39.4444C4.96597 35.5705 2.92969 30.5187 2.92969 25C2.92969 12.8304 12.8304 2.92969 25 2.92969C37.1696 2.92969 47.0703 12.8304 47.0703 25C47.0703 30.5199 45.0333 35.5728 41.6718 39.4466Z" fill="#0D0A36"/>
</g>
<defs>
<clipPath id="clip0_58_361">
<rect width="50" height="50" fill="white"/>
</clipPath>
</defs>
</svg>
