<svg width="50" height="50" viewBox="0 0 50 50" fill="none" xmlns="http://www.w3.org/2000/svg">
<path d="M47.7273 22.7468H7.75868L19.7883 10.6721C20.0054 10.4617 20.1786 10.21 20.2977 9.93164C20.4168 9.65332 20.4795 9.35398 20.4821 9.05107C20.4847 8.74817 20.4272 8.44778 20.3129 8.16742C20.1987 7.88706 20.0299 7.63235 19.8165 7.41816C19.6031 7.20397 19.3494 7.03458 19.0701 6.91988C18.7907 6.80517 18.4915 6.74745 18.1897 6.75009C17.8879 6.75272 17.5897 6.81565 17.3124 6.93521C17.0351 7.05477 16.7843 7.22856 16.5747 7.44644L0.66543 23.4152C0.239356 23.843 0 24.4231 0 25.028C0 25.6329 0.239356 26.2131 0.66543 26.6409L16.5747 42.6096C17.0033 43.0252 17.5774 43.2551 18.1733 43.2499C18.7692 43.2447 19.3393 43.0048 19.7607 42.5818C20.182 42.1589 20.4211 41.5867 20.4262 40.9886C20.4314 40.3904 20.2023 39.8142 19.7883 39.3839L7.75868 27.3093H47.7273C48.33 27.3093 48.9081 27.0689 49.3343 26.6411C49.7606 26.2133 50 25.6331 50 25.028C50 24.423 49.7606 23.8428 49.3343 23.4149C48.9081 22.9871 48.33 22.7468 47.7273 22.7468Z" fill="#0D0A36"/>
</svg>
