<svg width="50" height="50" viewBox="0 0 50 50" fill="none" xmlns="http://www.w3.org/2000/svg">
<path d="M25 1.47059C17.6471 1.47059 11.7647 7.35294 11.7647 14.7059V20.5882C9.2647 20.5882 7.35294 22.5 7.35294 25V44.1176C7.35294 46.6176 9.2647 48.5294 11.7647 48.5294H38.2353C40.7353 48.5294 42.6471 46.6176 42.6471 44.1176V25C42.6471 22.5 40.7353 20.5882 38.2353 20.5882V14.7059C38.2353 7.35294 32.3529 1.47059 25 1.47059ZM39.7059 25V44.1176C39.7059 45 39.1176 45.5882 38.2353 45.5882H11.7647C10.8823 45.5882 10.2941 45 10.2941 44.1176V25C10.2941 24.1176 10.8823 23.5294 11.7647 23.5294H13.2353H36.7647H38.2353C39.1176 23.5294 39.7059 24.1176 39.7059 25ZM14.7059 20.5882V14.7059C14.7059 8.97059 19.2647 4.41177 25 4.41177C30.7353 4.41177 35.2941 8.97059 35.2941 14.7059V20.5882H14.7059Z" fill="#0D0A36"/>
<path d="M25 27.9412C22.5 27.9412 20.5882 29.8529 20.5882 32.3529C20.5882 34.2647 21.7647 35.8824 23.5294 36.4706V39.7059C23.5294 40.5882 24.1176 41.1765 25 41.1765C25.8823 41.1765 26.4706 40.5882 26.4706 39.7059V36.4706C28.2353 35.8824 29.4118 34.2647 29.4118 32.3529C29.4118 29.8529 27.5 27.9412 25 27.9412ZM25 33.8235C24.1176 33.8235 23.5294 33.2353 23.5294 32.3529C23.5294 31.4706 24.1176 30.8824 25 30.8824C25.8823 30.8824 26.4706 31.4706 26.4706 32.3529C26.4706 33.2353 25.8823 33.8235 25 33.8235Z" fill="#0D0A36"/>
</svg>
