<svg width="50" height="50" viewBox="0 0 50 50" fill="none" xmlns="http://www.w3.org/2000/svg">
<g clip-path="url(#clip0_19_37)">
<path d="M5.76652 38.9979C4.09576 38.9979 2.4635 38.5715 0.984198 37.7409C0.223077 37.3489 -0.0717189 36.3682 0.382974 35.6305C1.89371 33.2165 2.43924 30.2655 1.74755 27.4903C1.03061 24.6133 -0.00674507 22.1902 0.000680513 19.1445C0.0264225 8.45896 8.92041 -0.203714 19.595 0.00358348C29.9055 0.211252 38.4027 8.87838 38.4028 19.1915C38.4029 32.6607 24.2871 42.1171 11.8254 36.9159C10.1078 38.2641 7.94877 38.9979 5.76652 38.9979ZM3.73637 35.7093C6.08384 36.4384 8.724 35.856 10.5342 34.1059C10.9803 33.6746 11.6475 33.5661 12.2071 33.8338C22.876 38.9348 35.4326 30.9394 35.4324 19.1915C35.4324 10.4251 28.3009 3.14968 19.5353 2.9732C10.5018 2.79374 2.99269 10.1099 2.97091 19.1517C2.96386 22.0446 4.09254 24.3565 4.70936 27.0969C5.35922 29.9848 5.01691 33.0387 3.73637 35.7093Z" fill="#0D0A36"/>
<path d="M44.2334 50C42.0513 50 39.8922 49.2661 38.1748 47.9181C31.5474 50.684 23.6642 49.4244 18.2303 44.7317C17.6095 44.1956 17.5409 43.2578 18.0769 42.6369C18.6131 42.0163 19.5508 41.9475 20.1716 42.4837C24.991 46.6457 32.0492 47.582 37.793 44.836C38.3525 44.5682 39.0195 44.6769 39.4658 45.1082C41.2759 46.8581 43.9162 47.4409 46.2637 46.7115C44.7531 43.5607 44.5438 39.951 45.7144 36.6092C45.725 36.5791 45.7365 36.5496 45.7489 36.5201C46.6038 34.5047 47.0346 32.3627 47.0293 30.1538C47.0199 26.2593 45.7243 22.6568 43.2826 19.7355C42.7566 19.106 42.8404 18.1695 43.4697 17.6436C44.0989 17.1174 45.0356 17.2014 45.5616 17.8307C48.4125 21.2416 49.9886 25.6154 49.9995 30.1466C50.0058 32.742 49.5022 35.2607 48.5029 37.6339C47.4531 40.6726 47.9359 43.9261 49.617 46.6324C50.072 47.3702 49.777 48.351 49.0156 48.7432C47.5366 49.5735 45.9039 49.9999 44.2334 50Z" fill="#0D0A36"/>
<path d="M19.2016 21.6143C20.4994 21.6143 21.5515 20.5627 21.5515 19.2656C21.5515 17.9684 20.4994 16.9168 19.2016 16.9168C17.9037 16.9168 16.8516 17.9684 16.8516 19.2656C16.8516 20.5627 17.9037 21.6143 19.2016 21.6143Z" fill="#0D0A36"/>
<path d="M10.5438 21.6143C11.8417 21.6143 12.8938 20.5627 12.8938 19.2656C12.8938 17.9684 11.8417 16.9168 10.5438 16.9168C9.24599 16.9168 8.19388 17.9684 8.19388 19.2656C8.19388 20.5627 9.24599 21.6143 10.5438 21.6143Z" fill="#0D0A36"/>
<path d="M27.8594 21.6143C29.1572 21.6143 30.2094 20.5627 30.2094 19.2656C30.2094 17.9684 29.1572 16.9168 27.8594 16.9168C26.5616 16.9168 25.5095 17.9684 25.5095 19.2656C25.5095 20.5627 26.5616 21.6143 27.8594 21.6143Z" fill="#0D0A36"/>
</g>
<defs>
<clipPath id="clip0_19_37">
<rect width="50" height="50" fill="white"/>
</clipPath>
</defs>
</svg>
