<svg width="50" height="50" viewBox="0 0 50 50" fill="none" xmlns="http://www.w3.org/2000/svg">
<g clip-path="url(#clip0_90_583)">
<path d="M26.5459 5.31484C26.549 4.62402 26.2246 3.95596 25.6433 3.53428L21.3484 0.417773C20.9644 0.139258 20.5126 0 20.0609 0C19.609 0 19.1572 0.139258 18.7732 0.417871L14.4783 3.53438C13.8973 3.95605 13.5726 4.62412 13.5758 5.31494H26.5459V5.31484Z" fill="#F1F2F2"/>
<path opacity="0.1" d="M17.8303 3.53452L21.7368 0.699951L21.3483 0.418115C20.9644 0.139502 20.5126 0.000244141 20.0607 0.000244141C19.6088 0.000244141 19.157 0.139502 18.773 0.418115L14.4781 3.53462C13.8971 3.9563 13.5725 4.62437 13.5756 5.31519H16.9277C16.9247 4.62427 17.2492 3.95601 17.8303 3.53452Z" fill="#414042"/>
<path d="M30.5309 8.81536C30.8379 8.26477 31.0134 7.63088 31.0134 6.95579C31.0134 4.84133 29.2972 3.12708 27.1801 3.12708H12.9414C10.8243 3.12708 9.10791 4.84114 9.10791 6.95579C9.10791 7.63079 9.2835 8.26467 9.59043 8.81536H30.5309Z" fill="#E4E6E5"/>
<path opacity="0.1" d="M16.2936 3.1272H12.9414C10.8243 3.1272 9.10791 4.84126 9.10791 6.95591C9.10791 7.63091 9.2835 8.26479 9.59043 8.81548H12.9426C12.6354 8.26489 12.4601 7.63101 12.4601 6.95591C12.4601 4.84136 14.1765 3.1272 16.2936 3.1272Z" fill="#414042"/>
<path d="M36.1206 12.0971C36.3571 11.5998 36.4901 11.0436 36.4901 10.4563C36.4901 8.34185 34.7736 6.62769 32.6565 6.62769H7.46505C5.34796 6.62769 3.63165 8.34175 3.63165 10.4563C3.63165 11.0435 3.76437 11.5998 4.00099 12.0971C4.00109 12.097 36.1206 12.097 36.1206 12.0971Z" fill="#F1F2F2"/>
<path opacity="0.1" d="M10.8171 6.62769H7.46493C5.34784 6.62769 3.63153 8.34175 3.63153 10.4563C3.63153 11.0435 3.76425 11.5998 4.00087 12.0971H7.35301C7.1162 11.5998 6.98358 11.0436 6.98358 10.4563C6.98358 8.34185 8.69999 6.62769 10.8171 6.62769Z" fill="#414042"/>
<path d="M43.4885 10.5972H36.2736C33.1425 10.5972 30.6046 13.1174 30.6046 16.2262V32.2178C30.6046 35.3267 33.1425 37.8469 36.2736 37.8469H43.4885C46.6193 37.8469 49.1574 35.3267 49.1574 32.2178V16.2262C49.1574 13.1174 46.6194 10.5972 43.4885 10.5972ZM44.0038 32.2179C44.0038 32.5 43.7729 32.7296 43.4886 32.7296H36.2737C35.9894 32.7296 35.7582 32.5 35.7582 32.2179V16.2262C35.7582 15.944 35.9894 15.7145 36.2737 15.7145H43.4886C43.7729 15.7145 44.0038 15.9439 44.0038 16.2262V32.2179Z" fill="#D84F48"/>
<path d="M0.84259 10.5972V40.4052C0.84259 45.7044 5.16896 50.0001 10.5055 50.0001H29.4449C34.7818 50.0001 39.1079 45.7044 39.1079 40.4052V10.5972H0.84259Z" fill="#D84F48"/>
<path opacity="0.1" d="M6.36846 40.4051V10.5972H0.842682V40.4052C0.842682 45.7043 5.16895 50 10.5055 50H16.0314C10.6946 50 6.36846 45.7043 6.36846 40.4051Z" fill="#414042"/>
<path d="M19.7205 27.376V21.1864L15.6404 17.1052V23.2948L19.7205 27.376Z" fill="#00B494"/>
<path d="M21.2995 27.376L25.3796 23.2948V17.1052L21.2995 21.1864V27.376Z" fill="#00B494"/>
<path d="M26.4959 24.4114L22.4156 28.4926H28.6836L32.6841 24.4114H26.4959Z" fill="#00B494"/>
<path d="M18.6044 28.4926L14.5241 24.4114H8.33603L12.4162 28.4926H18.6044Z" fill="#00B494"/>
<path d="M21.2995 31.1885V37.3779L25.3796 41.459V35.2695L21.2995 31.1885Z" fill="#00B494"/>
<path d="M22.4155 30.0715L26.4959 34.1529H32.6841L28.5208 30.0715H22.4155Z" fill="#00B494"/>
<path d="M19.7205 31.1885L15.6404 35.2695V41.459L19.7205 37.3779V31.1885Z" fill="#00B494"/>
<path d="M18.6045 30.0715H12.4162L8.33603 34.1529H14.5241L18.6045 30.0715Z" fill="#00B494"/>
</g>
<defs>
<clipPath id="clip0_90_583">
<rect width="50" height="50" fill="white"/>
</clipPath>
</defs>
</svg>
