<svg width="50" height="50" viewBox="0 0 50 50" fill="none" xmlns="http://www.w3.org/2000/svg">
<g clip-path="url(#clip0_86_535)">
<path d="M48.818 28.4431C48.3069 28.3153 47.7957 28.4431 47.3484 28.7626C45.687 30.1683 43.7701 31.3185 41.6615 32.0853C39.6806 32.852 37.5081 33.2354 35.2078 33.2354C30.032 33.2354 25.3036 31.1268 21.917 27.7402C18.5304 24.3536 16.4218 19.6251 16.4218 14.4494C16.4218 12.2769 16.8052 10.1682 17.4441 8.25131C18.147 6.20657 19.1694 4.35353 20.5112 2.75608C21.0863 2.05321 20.9585 1.03084 20.2557 0.455757C19.8084 0.136267 19.2972 0.00847144 18.786 0.136267C13.3547 1.60592 8.62623 4.86472 5.23963 9.20978C1.98084 13.4909 0 18.7945 0 24.6092C0 31.5741 2.81151 37.9 7.41216 42.5006C12.0128 47.1013 18.3387 49.9128 25.3036 49.9128C31.1822 49.9128 36.6135 47.868 40.9586 44.4815C45.3676 41.031 48.5625 36.1108 49.9043 30.4878C50.2238 29.5293 49.7126 28.6348 48.818 28.4431ZM39.0417 41.7977C35.3356 44.737 30.6071 46.5262 25.4314 46.5262C19.3611 46.5262 13.8659 44.0342 9.90419 40.0725C5.94251 36.1108 3.45049 30.6156 3.45049 24.5453C3.45049 19.4974 5.11184 14.8967 7.98725 11.1906C9.96808 8.6347 12.4601 6.52606 15.3355 5.05641C15.016 5.75929 14.6965 6.46217 14.4409 7.22894C13.6103 9.52927 13.2269 11.9574 13.2269 14.5133C13.2269 20.5836 15.7189 26.1427 19.6806 30.1044C23.6422 34.0661 29.2014 36.5581 35.2717 36.5581C37.9554 36.5581 40.5113 36.1108 42.8755 35.2163C43.7062 34.8968 44.5369 34.5773 45.3037 34.1939C43.7701 37.1332 41.6615 39.753 39.0417 41.7977Z" fill="black"/>
</g>
<defs>
<clipPath id="clip0_86_535">
<rect width="50" height="50" fill="white"/>
</clipPath>
</defs>
</svg>
