<svg width="50" height="50" viewBox="0 0 50 50" fill="none" xmlns="http://www.w3.org/2000/svg">
<g clip-path="url(#clip0_86_471)">
<path d="M25 12.4767C18.0945 12.4767 12.4767 18.0957 12.4767 25.0011C12.4767 31.9066 18.0945 37.5255 25 37.5255C31.9043 37.5255 37.5232 31.9077 37.5232 25.0011C37.5232 18.0945 31.9043 12.4767 25 12.4767Z" fill="#0D0A36"/>
<path d="M25 8.79539C23.6503 8.79539 22.5565 7.70151 22.5565 6.35297V2.44353C22.5565 1.09389 23.6503 0 25 0C26.3496 0 27.4435 1.09389 27.4435 2.44353V6.35297C27.4435 7.70151 26.3485 8.79539 25 8.79539Z" fill="#0D0A36"/>
<path d="M25 41.2035C23.6503 41.2035 22.5565 42.2974 22.5565 43.647V47.5554C22.5565 48.9061 23.6503 50 25 50C26.3496 50 27.4435 48.9061 27.4435 47.5554V43.647C27.4435 42.2974 26.3485 41.2035 25 41.2035Z" fill="#0D0A36"/>
<path d="M36.4571 13.5418C35.5038 12.5875 35.5038 11.0407 36.4571 10.0864L39.2217 7.32174C40.1749 6.36846 41.7228 6.36846 42.6772 7.32174C43.6315 8.27612 43.6315 9.82395 42.6772 10.7772L39.9125 13.5418C38.9593 14.4962 37.4125 14.4962 36.4571 13.5418Z" fill="#0D0A36"/>
<path d="M13.5418 36.4593C12.5875 35.5038 11.0407 35.5038 10.0864 36.4593L7.32174 39.2228C6.36846 40.176 6.36736 41.725 7.32174 42.6783C8.27613 43.6315 9.82396 43.6315 10.7772 42.6783L13.5418 39.9125C14.4962 38.9593 14.4962 37.4114 13.5418 36.4593Z" fill="#0D0A36"/>
<path d="M41.2035 25C41.2035 23.6503 42.2974 22.5565 43.647 22.5565H47.5565C48.9061 22.5565 50 23.6503 50 25C50 26.3496 48.9061 27.4424 47.5565 27.4424H43.647C42.2974 27.4424 41.2035 26.3496 41.2035 25Z" fill="#0D0A36"/>
<path d="M8.79539 25C8.79539 23.6503 7.70151 22.5565 6.35186 22.5565H2.44353C1.09389 22.5565 0 23.6503 0 25C0 26.3496 1.09389 27.4424 2.44353 27.4424H6.35297C7.70151 27.4424 8.79539 26.3496 8.79539 25Z" fill="#0D0A36"/>
<path d="M36.457 36.4593C37.4114 35.506 38.9593 35.506 39.9125 36.4593L42.6772 39.2239C43.6315 40.176 43.6315 41.725 42.6772 42.6783C41.7228 43.6315 40.176 43.6315 39.2217 42.6783L36.457 39.9136C35.5027 38.9593 35.5027 37.4125 36.457 36.4593Z" fill="#0D0A36"/>
<path d="M13.5419 13.5418C14.4962 12.5875 14.4962 11.0407 13.5419 10.0864L10.7772 7.32284C9.82285 6.36846 8.27613 6.36846 7.32175 7.32284C6.36736 8.27612 6.36736 9.82395 7.32175 10.7772L10.0864 13.5418C11.0407 14.4973 12.5875 14.4973 13.5419 13.5418Z" fill="#0D0A36"/>
</g>
<defs>
<clipPath id="clip0_86_471">
<rect width="50" height="50" fill="white"/>
</clipPath>
</defs>
</svg>
