<svg width="50" height="49" viewBox="0 0 50 49" fill="none" xmlns="http://www.w3.org/2000/svg">
<path d="M35.9831 16.9025C31.7147 16.9025 28.2422 20.3033 28.2422 24.4834C28.2422 28.6636 31.7147 32.0644 35.9831 32.0644C40.2515 32.0644 43.724 28.6636 43.724 24.4834C43.724 20.3033 40.2515 16.9025 35.9831 16.9025ZM35.9831 29.1952C33.3302 29.1952 31.1719 27.0815 31.1719 24.4834C31.1719 21.8853 33.3302 19.7716 35.9831 19.7716C38.636 19.7716 40.7943 21.8853 40.7943 24.4834C40.7943 27.0815 38.636 29.1952 35.9831 29.1952Z" fill="black"/>
<path d="M35.9831 10.7562H14.0169C6.28799 10.7562 0 16.9141 0 24.4834C0 32.0527 6.28799 38.2107 14.0169 38.2107H35.9831C43.712 38.2107 50 32.0527 50 24.4834C50 16.9141 43.712 10.7562 35.9831 10.7562ZM35.9831 35.3415H14.0169C7.90342 35.3415 2.92969 30.4707 2.92969 24.4834C2.92969 18.4962 7.90342 13.6253 14.0169 13.6253H35.9831C42.0966 13.6253 47.0703 18.4962 47.0703 24.4834C47.0703 30.4707 42.0966 35.3415 35.9831 35.3415Z" fill="black"/>
</svg>
