<svg width="50" height="50" viewBox="0 0 50 50" fill="none" xmlns="http://www.w3.org/2000/svg">
<g clip-path="url(#clip0_92_433)">
<path d="M40.6271 37.5C40.5708 37.5 40.5125 37.4958 40.4542 37.4854C39.8875 37.3917 39.5042 36.8542 39.5979 36.2875L41.2021 26.6208C41.4208 25.3437 40.825 24.05 39.7208 23.3958L30.6604 18.0854C30.1646 17.7937 29.9979 17.1562 30.2875 16.6583C30.5813 16.1625 31.2208 16 31.7146 16.2854L40.7792 21.5979C42.6271 22.6896 43.6188 24.8479 43.2563 26.9667L41.6521 36.6271C41.5688 37.1375 41.1271 37.5 40.6271 37.5Z" fill="black"/>
<path d="M9.37292 37.5C8.87292 37.5 8.43125 37.1375 8.34792 36.6292L6.74375 26.9625C6.38125 24.8479 7.375 22.6917 9.21875 21.6021L18.3708 16.2271C18.8563 15.9354 19.5021 16.0979 19.7958 16.5979C20.0875 17.0917 19.9208 17.7313 19.4229 18.0208L10.275 23.3958C9.175 24.0479 8.57917 25.3438 8.79792 26.6146L10.4021 36.2875C10.4958 36.8542 10.1125 37.3917 9.54584 37.4854C9.4875 37.4958 9.42917 37.5 9.37292 37.5Z" fill="black"/>
<path d="M24.9917 50C24.8438 50 24.6917 49.9667 24.5521 49.9021L13.1021 44.5813C12.7354 44.4104 12.5 44.0438 12.5 43.6375V31.3604C12.5 31.0042 12.6812 30.6729 12.9812 30.4813C13.2792 30.2896 13.6542 30.2646 13.9792 30.4167L25.4292 35.7375C25.7958 35.9083 26.0312 36.2771 26.0312 36.6813V48.9583C26.0312 49.3146 25.85 49.6458 25.55 49.8375C25.3833 49.9458 25.1875 50 24.9917 50ZM14.5833 42.9729L23.95 47.3271V37.3479L14.5833 32.9938V42.9729Z" fill="black"/>
<path d="M25.0083 50C24.8125 50 24.6167 49.9458 24.4479 49.8375C24.1458 49.6458 23.9667 49.3146 23.9667 48.9583V36.6812C23.9667 36.2771 24.2021 35.9083 24.5687 35.7375L36.0187 30.4167C36.3417 30.2667 36.7187 30.2896 37.0167 30.4812C37.3187 30.675 37.5 31.0062 37.5 31.3625V43.6396C37.5 44.0437 37.2646 44.4125 36.8979 44.5833L25.4479 49.9042C25.3062 49.9667 25.1562 50 25.0083 50ZM26.05 37.3479V47.3271L35.4167 42.9729V32.9937L26.05 37.3479ZM36.4583 43.6375H36.4792H36.4583Z" fill="black"/>
<path d="M36.4583 32.4042C36.3104 32.4042 36.1604 32.3729 36.0188 32.3062L25.0083 27.1896L13.9792 32.3062C13.4625 32.5542 12.8375 32.3229 12.5979 31.8C12.3563 31.2792 12.5813 30.6604 13.1042 30.4187L24.5708 25.0979C24.8479 24.9687 25.1667 24.9687 25.4479 25.0979L36.8979 30.4187C37.4188 30.6604 37.6438 31.2792 37.4021 31.8021C37.2271 32.1792 36.85 32.4042 36.4583 32.4042Z" fill="black"/>
<path d="M31.25 39.5833C30.675 39.5833 30.2083 39.1167 30.2083 38.5417V34.4583L19.4688 29.3354C18.9479 29.0875 18.7292 28.4667 18.9771 27.9479C19.225 27.4292 19.8479 27.2083 20.3646 27.4562L31.6292 32.8271C32.0146 32.9833 32.2917 33.3562 32.2917 33.7917V38.5417C32.2917 39.1167 31.825 39.5833 31.25 39.5833Z" fill="black"/>
<path d="M7.43542 16.6667H5.35208C3.62916 16.6667 2.22708 15.2646 2.22708 13.5417V9.375C2.22708 7.65208 3.62916 6.25 5.35208 6.25H7.43542C9.15833 6.25 10.5604 7.65208 10.5604 9.375V13.5417C10.5604 15.2646 9.15833 16.6667 7.43542 16.6667ZM5.35208 8.33333C4.77916 8.33333 4.31041 8.80208 4.31041 9.375V13.5417C4.31041 14.1146 4.77916 14.5833 5.35208 14.5833H7.43542C8.00833 14.5833 8.47708 14.1146 8.47708 13.5417V9.375C8.47708 8.80208 8.00833 8.33333 7.43542 8.33333H5.35208Z" fill="black"/>
<path d="M11.4583 2.08333H1.04167C0.466667 2.08333 0 1.61667 0 1.04167C0 0.466667 0.466667 0 1.04167 0H11.4583C12.0333 0 12.5 0.466667 12.5 1.04167C12.5 1.61667 12.0333 2.08333 11.4583 2.08333Z" fill="black"/>
<path d="M6.24999 8.33333C5.67499 8.33333 5.20833 7.86667 5.20833 7.29167V1.04167C5.20833 0.466667 5.67499 0 6.24999 0C6.825 0 7.29166 0.466667 7.29166 1.04167V7.29167C7.29166 7.86667 6.825 8.33333 6.24999 8.33333Z" fill="black"/>
<path d="M44.9354 16.6667H42.8521C41.1292 16.6667 39.7271 15.2646 39.7271 13.5417V9.375C39.7271 7.65208 41.1292 6.25 42.8521 6.25H44.9354C46.6583 6.25 48.0604 7.65208 48.0604 9.375V13.5417C48.0604 15.2646 46.6583 16.6667 44.9354 16.6667ZM42.8521 8.33333C42.2792 8.33333 41.8104 8.80208 41.8104 9.375V13.5417C41.8104 14.1146 42.2792 14.5833 42.8521 14.5833H44.9354C45.5083 14.5833 45.9771 14.1146 45.9771 13.5417V9.375C45.9771 8.80208 45.5083 8.33333 44.9354 8.33333H42.8521Z" fill="black"/>
<path d="M48.9583 2.08333H38.5417C37.9667 2.08333 37.5 1.61667 37.5 1.04167C37.5 0.466667 37.9667 0 38.5417 0H48.9583C49.5333 0 50 0.466667 50 1.04167C50 1.61667 49.5333 2.08333 48.9583 2.08333Z" fill="black"/>
<path d="M43.75 8.33333C43.175 8.33333 42.7083 7.86667 42.7083 7.29167V1.04167C42.7083 0.466667 43.175 0 43.75 0C44.325 0 44.7917 0.466667 44.7917 1.04167V7.29167C44.7917 7.86667 44.325 8.33333 43.75 8.33333Z" fill="black"/>
<path d="M25.1458 20.8333C21.6542 20.8333 18.5417 19.0354 16.8771 16.1396C16.325 15.1792 15.2958 14.5833 14.1917 14.5833H9.52084C8.94584 14.5833 8.47917 14.1167 8.47917 13.5417C8.47917 12.9667 8.94584 12.5 9.52084 12.5H14.1896C16.0375 12.5 17.7583 13.4979 18.6833 15.1C19.9792 17.3521 22.3979 18.75 25 18.75C27.7458 18.75 30.1646 17.3521 31.4625 15.1021C32.3833 13.4979 34.1063 12.5 35.9563 12.5H39.5833V10.4167H35.9563C34.1063 10.4167 32.3833 9.41876 31.4625 7.81459C30.1646 5.56459 27.7458 4.16668 25.1458 4.16668C22.3979 4.16668 19.9792 5.56459 18.6833 7.81459C17.7583 9.41876 16.0375 10.4167 14.1917 10.4167H9.52084C8.94584 10.4167 8.47917 9.95001 8.47917 9.37501C8.47917 8.80001 8.94584 8.33334 9.52084 8.33334H14.1896C15.2938 8.33334 16.3229 7.73751 16.8771 6.77501C18.5417 3.88126 21.6563 2.08334 25 2.08334C28.4896 2.08334 31.6021 3.88126 33.2688 6.77709C33.8188 7.73751 34.85 8.33334 35.9563 8.33334H40.625C41.2 8.33334 41.6667 8.80001 41.6667 9.37501V13.5417C41.6667 14.1167 41.2 14.5833 40.625 14.5833H35.9563C34.85 14.5833 33.8208 15.1792 33.2688 16.1396C31.6021 19.0354 28.4896 20.8333 25.1458 20.8333Z" fill="black"/>
</g>
<defs>
<clipPath id="clip0_92_433">
<rect width="50" height="50" fill="white"/>
</clipPath>
</defs>
</svg>
