<svg width="50" height="50" viewBox="0 0 50 50" fill="none" xmlns="http://www.w3.org/2000/svg">
<g clip-path="url(#clip0_58_318)">
<path d="M41.0714 4.54545C42.1429 4.54545 42.8571 3.63636 42.8571 2.27273C42.8571 0.909091 42.1429 0 41.0714 0H8.92857C7.85714 0 7.14285 0.909091 7.14285 2.27273C7.14285 3.63636 7.85714 4.54545 8.92857 4.54545H41.0714Z" fill="#0D0A36"/>
<path d="M41.0714 50C42.1429 50 42.8571 49.0909 42.8571 47.7273C42.8571 46.3636 42.1429 45.4545 41.0714 45.4545H8.92857C7.85714 45.4545 7.14285 46.3636 7.14285 47.7273C7.14285 49.0909 7.85714 50 8.92857 50H41.0714Z" fill="#0D0A36"/>
<path d="M48.2143 22.7273H1.78571C0.714286 22.7273 0 23.6364 0 25C0 26.3636 0.714286 27.2727 1.78571 27.2727H48.2143C49.2857 27.2727 50 26.3636 50 25C50 23.6364 49.2857 22.7273 48.2143 22.7273Z" fill="#0D0A36"/>
</g>
<defs>
<clipPath id="clip0_58_318">
<rect width="50" height="50" fill="white"/>
</clipPath>
</defs>
</svg>
