<svg width="50" height="50" viewBox="0 0 50 50" fill="none" xmlns="http://www.w3.org/2000/svg">
<g clip-path="url(#clip0_100_409)">
<path d="M3.90625 7.8125C6.06361 7.8125 7.8125 6.06361 7.8125 3.90625C7.8125 1.74889 6.06361 0 3.90625 0C1.74889 0 0 1.74889 0 3.90625C0 6.06361 1.74889 7.8125 3.90625 7.8125Z" fill="#FFD241"/>
<path d="M22.6562 11.7188C24.8136 11.7188 26.5625 9.96986 26.5625 7.8125C26.5625 5.65514 24.8136 3.90625 22.6562 3.90625C20.4989 3.90625 18.75 5.65514 18.75 7.8125C18.75 9.96986 20.4989 11.7188 22.6562 11.7188Z" fill="#FFD241"/>
<path d="M46.0938 14.0625C48.2511 14.0625 50 12.3136 50 10.1562C50 7.99889 48.2511 6.25 46.0938 6.25C43.9364 6.25 42.1875 7.99889 42.1875 10.1562C42.1875 12.3136 43.9364 14.0625 46.0938 14.0625Z" fill="#FFD241"/>
<path d="M11.7188 11.7188C12.5817 11.7188 13.2812 11.0192 13.2812 10.1562C13.2812 9.29331 12.5817 8.59375 11.7188 8.59375C10.8558 8.59375 10.1562 9.29331 10.1562 10.1562C10.1562 11.0192 10.8558 11.7188 11.7188 11.7188Z" fill="#FFD241"/>
<path d="M36.7188 6.25C37.5817 6.25 38.2812 5.55045 38.2812 4.6875C38.2812 3.82456 37.5817 3.125 36.7188 3.125C35.8558 3.125 35.1562 3.82456 35.1562 4.6875C35.1562 5.55045 35.8558 6.25 36.7188 6.25Z" fill="#FFD241"/>
<path d="M25 49.2187C25 49.2187 45.3125 37.7807 45.3125 26.5625C45.3125 19.775 39.8786 14.8071 34.375 14.8437C30.7823 14.8676 27.1599 17.2465 25 21.875C22.8401 17.2465 19.2177 14.8676 15.625 14.8437C10.1214 14.8071 4.6875 19.775 4.6875 26.5625C4.6875 37.7807 25 49.2187 25 49.2187Z" fill="#EF4136"/>
<path d="M7.03125 28.9062C7.03125 22.1187 12.4651 17.1509 17.9688 17.1875C19.9038 17.225 21.7755 17.8833 23.3079 19.0655C21.1857 16.2896 18.398 14.8621 15.625 14.8437C10.1214 14.8071 4.6875 19.775 4.6875 26.5625C4.6875 31.3673 8.41563 36.2095 12.6761 40.179C9.48034 36.7196 7.03125 32.8002 7.03125 28.9062Z" fill="#E66D64"/>
<path d="M35.176 14.8834C37.2798 15.8187 39.0643 17.3486 40.31 19.2847C41.5557 21.2209 42.2083 23.479 42.1875 25.7813C42.1875 35.5517 26.7845 45.4856 22.8075 47.8878C24.1489 48.7379 25 49.2188 25 49.2188C25 49.2188 45.3125 37.7808 45.3125 26.5625C45.3125 20.1049 40.3935 15.3044 35.176 14.8834Z" fill="#BE3C36"/>
<path d="M10.1561 25.7815C9.94887 25.7814 9.75015 25.6991 9.60363 25.5526C9.45711 25.4061 9.3748 25.2074 9.37479 25.0002C9.37479 20.6606 14.2854 18.1553 14.4945 18.0508C14.6798 17.958 14.8943 17.9427 15.091 18.0081C15.2876 18.0735 15.4502 18.2144 15.543 18.3997C15.6358 18.585 15.6511 18.7996 15.5857 18.9962C15.5203 19.1929 15.3794 19.3555 15.1941 19.4482C15.1518 19.4696 10.9374 21.6308 10.9374 25.0002C10.9374 25.2074 10.8551 25.4061 10.7085 25.5526C10.562 25.6991 10.3633 25.7814 10.1561 25.7815Z" fill="#F1F2F2"/>
<path d="M9.375 27.3438H10.9375V28.9062H9.375V27.3438Z" fill="#F1F2F2"/>
<path d="M30.8208 36.8046C30.6361 36.7122 30.4224 36.6964 30.226 36.7605C30.0297 36.8247 29.8665 36.9635 29.7718 37.1471C29.2764 37.9698 28.5767 38.6504 27.7407 39.1229C26.9046 39.5954 25.9606 39.8437 25.0003 39.8437C24.04 39.8438 23.096 39.5955 22.2599 39.1231C21.4238 38.6507 20.7241 37.9701 20.2286 37.1475C20.1354 36.9626 19.9726 36.8222 19.7759 36.7572C19.5793 36.6922 19.3649 36.708 19.1799 36.801C18.9948 36.894 18.8543 37.0567 18.7891 37.2533C18.724 37.4499 18.7395 37.6643 18.8324 37.8494C19.4583 38.931 20.3576 39.829 21.4401 40.4533C22.5227 41.0776 23.7503 41.4062 25 41.4062C26.2496 41.4062 27.4773 41.0776 28.5599 40.4533C29.6424 39.829 30.5417 38.931 31.1676 37.8494C31.2597 37.6648 31.275 37.4512 31.21 37.2554C31.145 37.0596 31.0051 36.8975 30.8208 36.8046Z" fill="black"/>
<path d="M19.6136 29.2557C19.7066 29.4405 19.8691 29.5809 20.0655 29.6461C20.2618 29.7113 20.476 29.696 20.6611 29.6034C20.8462 29.5109 20.987 29.3488 21.0526 29.1525C21.1183 28.9563 21.1034 28.7421 21.0113 28.5568C20.7215 27.9884 20.2884 27.5055 19.7548 27.1557C19.2212 26.8059 18.6056 26.6015 17.9687 26.5625C17.3319 26.6015 16.7163 26.8059 16.1827 27.1557C15.649 27.5055 15.2159 27.9884 14.9261 28.5568C14.8344 28.7417 14.8195 28.9553 14.8848 29.1511C14.95 29.3469 15.09 29.509 15.2743 29.6019C15.4586 29.6948 15.6722 29.711 15.8684 29.647C16.0646 29.583 16.2275 29.444 16.3216 29.2603C16.4821 28.9506 16.7163 28.6851 17.0035 28.4871C17.2907 28.2892 17.6222 28.1648 17.9687 28.125C18.3145 28.1646 18.6452 28.2884 18.932 28.4855C19.2188 28.6826 19.4528 28.9471 19.6136 29.2557Z" fill="black"/>
<path d="M32.0312 26.5625C31.3944 26.6015 30.7788 26.8059 30.2452 27.1557C29.7115 27.5055 29.2784 27.9884 28.9886 28.5568C28.8969 28.7417 28.882 28.9553 28.9473 29.1511C29.0125 29.3469 29.1525 29.509 29.3368 29.6019C29.5211 29.6948 29.7347 29.711 29.9309 29.647C30.1271 29.583 30.29 29.444 30.3841 29.2603C30.5446 28.9506 30.7788 28.6851 31.066 28.4871C31.3532 28.2892 31.6847 28.1648 32.0312 28.125C32.3778 28.1647 32.7092 28.289 32.9965 28.4869C33.2837 28.6848 33.5179 28.9502 33.6784 29.2599C33.7717 29.4449 33.9346 29.5853 34.1314 29.6503C34.3281 29.7152 34.5426 29.6993 34.7277 29.6061C34.9127 29.5128 35.0531 29.3499 35.1181 29.1531C35.183 28.9564 35.1671 28.7419 35.0738 28.5568C34.784 27.9884 34.3509 27.5055 33.8173 27.1557C33.2837 26.8059 32.6681 26.6015 32.0312 26.5625Z" fill="black"/>
<path d="M34.4345 14.0621L34.3697 14.0625C30.6519 14.0873 27.2324 16.3494 25 20.1882C22.7676 16.3494 19.3481 14.0873 15.6304 14.0625L15.5655 14.0621C12.5804 14.1218 9.73785 15.35 7.64844 17.4828C6.45285 18.6718 5.50615 20.0871 4.86363 21.6461C4.22111 23.205 3.89565 24.8764 3.90626 26.5625C3.90626 38.1046 23.7709 49.4232 24.6166 49.8997C24.7337 49.9655 24.8657 50 25 50C25.1343 50 25.2663 49.9655 25.3834 49.8997C26.2291 49.4232 46.0938 38.1046 46.0938 26.5625C46.1044 24.8764 45.7789 23.205 45.1364 21.6461C44.4939 20.0871 43.5472 18.6718 42.3516 17.4828C40.2622 15.35 37.4196 14.1218 34.4345 14.0621ZM25 48.3151C22.2309 46.6789 5.46876 36.3659 5.46876 26.5625C5.45872 25.0825 5.74369 23.6152 6.30704 22.2465C6.87038 20.8778 7.70079 19.6351 8.74978 18.5909C10.5459 16.7485 12.9927 15.6835 15.5651 15.6246L15.6197 15.625C19.1383 15.6487 22.3801 18.1084 24.292 22.2054C24.3549 22.3401 24.4549 22.4541 24.5803 22.534C24.7057 22.6138 24.8513 22.6563 25 22.6563C25.1487 22.6563 25.2943 22.6138 25.4197 22.534C25.5451 22.4541 25.6451 22.3401 25.708 22.2054C27.6199 18.1084 30.8617 15.6487 34.3804 15.625L34.4349 15.6246C37.0073 15.6836 39.4541 16.7485 41.2502 18.5909C42.2992 19.6351 43.1296 20.8778 43.693 22.2465C44.2563 23.6152 44.5413 25.0825 44.5313 26.5625C44.5313 36.3659 27.7691 46.6789 25 48.3151Z" fill="black"/>
<path d="M12.9318 18.0511C12.7228 18.1556 7.8125 20.6607 7.8125 25C7.8125 25.2072 7.89481 25.4059 8.04132 25.5524C8.18784 25.6989 8.38655 25.7812 8.59375 25.7812C8.80095 25.7812 8.99966 25.6989 9.14618 25.5524C9.29269 25.4059 9.375 25.2072 9.375 25C9.375 21.6308 13.5891 19.4698 13.6314 19.4484C13.8161 19.3552 13.9562 19.1927 14.0212 18.9963C14.0862 18.8 14.0707 18.5859 13.9781 18.401C13.8855 18.2161 13.7234 18.0754 13.5273 18.0098C13.3312 17.9442 13.117 17.9591 12.9318 18.0511V18.0511Z" fill="black"/>
<path d="M7.8125 27.3438H9.375V28.9062H7.8125V27.3438Z" fill="black"/>
<path d="M3.90625 3.125C4.11345 3.125 4.31216 3.04269 4.45868 2.89618C4.60519 2.74966 4.6875 2.55095 4.6875 2.34375V0.78125C4.6875 0.57405 4.60519 0.375336 4.45868 0.228823C4.31216 0.08231 4.11345 0 3.90625 0C3.69905 0 3.50034 0.08231 3.35382 0.228823C3.20731 0.375336 3.125 0.57405 3.125 0.78125V2.34375C3.125 2.55095 3.20731 2.74966 3.35382 2.89618C3.50034 3.04269 3.69905 3.125 3.90625 3.125Z" fill="black"/>
<path d="M4.6875 7.03125V5.46875C4.6875 5.26155 4.60519 5.06284 4.45868 4.91632C4.31216 4.76981 4.11345 4.6875 3.90625 4.6875C3.69905 4.6875 3.50034 4.76981 3.35382 4.91632C3.20731 5.06284 3.125 5.26155 3.125 5.46875V7.03125C3.125 7.23845 3.20731 7.43716 3.35382 7.58368C3.50034 7.73019 3.69905 7.8125 3.90625 7.8125C4.11345 7.8125 4.31216 7.73019 4.45868 7.58368C4.60519 7.43716 4.6875 7.23845 4.6875 7.03125Z" fill="black"/>
<path d="M5.46875 4.6875H7.03125C7.23845 4.6875 7.43716 4.60519 7.58368 4.45868C7.73019 4.31216 7.8125 4.11345 7.8125 3.90625C7.8125 3.69905 7.73019 3.50034 7.58368 3.35382C7.43716 3.20731 7.23845 3.125 7.03125 3.125H5.46875C5.26155 3.125 5.06284 3.20731 4.91632 3.35382C4.76981 3.50034 4.6875 3.69905 4.6875 3.90625C4.6875 4.11345 4.76981 4.31216 4.91632 4.45868C5.06284 4.60519 5.26155 4.6875 5.46875 4.6875Z" fill="black"/>
<path d="M2.34375 3.125H0.78125C0.57405 3.125 0.375336 3.20731 0.228823 3.35382C0.08231 3.50034 0 3.69905 0 3.90625C0 4.11345 0.08231 4.31216 0.228823 4.45868C0.375336 4.60519 0.57405 4.6875 0.78125 4.6875H2.34375C2.55095 4.6875 2.74966 4.60519 2.89618 4.45868C3.04269 4.31216 3.125 4.11345 3.125 3.90625C3.125 3.69905 3.04269 3.50034 2.89618 3.35382C2.74966 3.20731 2.55095 3.125 2.34375 3.125Z" fill="black"/>
<path d="M46.0938 9.375C46.301 9.375 46.4997 9.29269 46.6462 9.14618C46.7927 8.99966 46.875 8.80095 46.875 8.59375V7.03125C46.875 6.82405 46.7927 6.62534 46.6462 6.47882C46.4997 6.33231 46.301 6.25 46.0938 6.25C45.8865 6.25 45.6878 6.33231 45.5413 6.47882C45.3948 6.62534 45.3125 6.82405 45.3125 7.03125V8.59375C45.3125 8.80095 45.3948 8.99966 45.5413 9.14618C45.6878 9.29269 45.8865 9.375 46.0938 9.375Z" fill="black"/>
<path d="M46.0938 10.9375C45.8865 10.9375 45.6878 11.0198 45.5413 11.1663C45.3948 11.3128 45.3125 11.5115 45.3125 11.7188V13.2812C45.3125 13.4885 45.3948 13.6872 45.5413 13.8337C45.6878 13.9802 45.8865 14.0625 46.0938 14.0625C46.301 14.0625 46.4997 13.9802 46.6462 13.8337C46.7927 13.6872 46.875 13.4885 46.875 13.2812V11.7188C46.875 11.5115 46.7927 11.3128 46.6462 11.1663C46.4997 11.0198 46.301 10.9375 46.0938 10.9375Z" fill="black"/>
<path d="M49.2188 9.375H47.6562C47.449 9.375 47.2503 9.45731 47.1038 9.60382C46.9573 9.75034 46.875 9.94905 46.875 10.1562C46.875 10.3635 46.9573 10.5622 47.1038 10.7087C47.2503 10.8552 47.449 10.9375 47.6562 10.9375H49.2188C49.426 10.9375 49.6247 10.8552 49.7712 10.7087C49.9177 10.5622 50 10.3635 50 10.1562C50 9.94905 49.9177 9.75034 49.7712 9.60382C49.6247 9.45731 49.426 9.375 49.2188 9.375Z" fill="black"/>
<path d="M42.9688 10.9375H44.5312C44.7385 10.9375 44.9372 10.8552 45.0837 10.7087C45.2302 10.5622 45.3125 10.3635 45.3125 10.1562C45.3125 9.94905 45.2302 9.75034 45.0837 9.60382C44.9372 9.45731 44.7385 9.375 44.5312 9.375H42.9688C42.7615 9.375 42.5628 9.45731 42.4163 9.60382C42.2698 9.75034 42.1875 9.94905 42.1875 10.1562C42.1875 10.3635 42.2698 10.5622 42.4163 10.7087C42.5628 10.8552 42.7615 10.9375 42.9688 10.9375Z" fill="black"/>
<path d="M22.6562 7.03125C22.8635 7.03125 23.0622 6.94894 23.2087 6.80243C23.3552 6.65591 23.4375 6.4572 23.4375 6.25V4.6875C23.4375 4.4803 23.3552 4.28159 23.2087 4.13507C23.0622 3.98856 22.8635 3.90625 22.6562 3.90625C22.449 3.90625 22.2503 3.98856 22.1038 4.13507C21.9573 4.28159 21.875 4.4803 21.875 4.6875V6.25C21.875 6.4572 21.9573 6.65591 22.1038 6.80243C22.2503 6.94894 22.449 7.03125 22.6562 7.03125Z" fill="black"/>
<path d="M22.6562 8.59375C22.449 8.59375 22.2503 8.67606 22.1038 8.82257C21.9573 8.96909 21.875 9.1678 21.875 9.375V10.9375C21.875 11.1447 21.9573 11.3434 22.1038 11.4899C22.2503 11.6364 22.449 11.7188 22.6562 11.7188C22.8635 11.7188 23.0622 11.6364 23.2087 11.4899C23.3552 11.3434 23.4375 11.1447 23.4375 10.9375V9.375C23.4375 9.1678 23.3552 8.96909 23.2087 8.82257C23.0622 8.67606 22.8635 8.59375 22.6562 8.59375Z" fill="black"/>
<path d="M24.2188 8.59375H25.7812C25.9885 8.59375 26.1872 8.51144 26.3337 8.36493C26.4802 8.21841 26.5625 8.0197 26.5625 7.8125C26.5625 7.6053 26.4802 7.40659 26.3337 7.26007C26.1872 7.11356 25.9885 7.03125 25.7812 7.03125H24.2188C24.0115 7.03125 23.8128 7.11356 23.6663 7.26007C23.5198 7.40659 23.4375 7.6053 23.4375 7.8125C23.4375 8.0197 23.5198 8.21841 23.6663 8.36493C23.8128 8.51144 24.0115 8.59375 24.2188 8.59375Z" fill="black"/>
<path d="M19.5312 8.59375H21.0938C21.301 8.59375 21.4997 8.51144 21.6462 8.36493C21.7927 8.21841 21.875 8.0197 21.875 7.8125C21.875 7.6053 21.7927 7.40659 21.6462 7.26007C21.4997 7.11356 21.301 7.03125 21.0938 7.03125H19.5312C19.324 7.03125 19.1253 7.11356 18.9788 7.26007C18.8323 7.40659 18.75 7.6053 18.75 7.8125C18.75 8.0197 18.8323 8.21841 18.9788 8.36493C19.1253 8.51144 19.324 8.59375 19.5312 8.59375Z" fill="black"/>
<path d="M36.7188 7.03125C37.1823 7.03125 37.6354 6.89379 38.0209 6.63626C38.4063 6.37872 38.7067 6.01268 38.8841 5.58442C39.0615 5.15615 39.1079 4.6849 39.0175 4.23026C38.927 3.77562 38.7038 3.358 38.376 3.03022C38.0483 2.70244 37.6306 2.47922 37.176 2.38879C36.7213 2.29835 36.2501 2.34477 35.8218 2.52216C35.3936 2.69955 35.0275 2.99996 34.77 3.38538C34.5125 3.77081 34.375 4.22395 34.375 4.6875C34.3757 5.30889 34.6228 5.90464 35.0622 6.34403C35.5016 6.78342 36.0974 7.03057 36.7188 7.03125ZM36.7188 3.90625C36.8733 3.90625 37.0243 3.95207 37.1528 4.03792C37.2813 4.12376 37.3814 4.24577 37.4405 4.38853C37.4997 4.53128 37.5151 4.68837 37.485 4.83992C37.4548 4.99146 37.3804 5.13067 37.2712 5.23993C37.1619 5.34919 37.0227 5.42359 36.8712 5.45374C36.7196 5.48388 36.5625 5.46841 36.4198 5.40928C36.277 5.35015 36.155 5.25002 36.0692 5.12154C35.9833 4.99306 35.9375 4.84202 35.9375 4.6875C35.9378 4.48038 36.0202 4.28183 36.1666 4.13537C36.3131 3.98892 36.5116 3.90652 36.7188 3.90625Z" fill="black"/>
<path d="M11.7188 12.5C12.1823 12.5 12.6354 12.3625 13.0209 12.105C13.4063 11.8475 13.7067 11.4814 13.8841 11.0532C14.0615 10.6249 14.1079 10.1537 14.0175 9.69901C13.927 9.24437 13.7038 8.82675 13.376 8.49897C13.0483 8.17119 12.6306 7.94797 12.176 7.85754C11.7213 7.7671 11.2501 7.81352 10.8218 7.99091C10.3936 8.1683 10.0275 8.46871 9.76999 8.85413C9.51246 9.23956 9.375 9.6927 9.375 10.1563C9.37568 10.7776 9.62283 11.3734 10.0622 11.8128C10.5016 12.2522 11.0974 12.4993 11.7188 12.5ZM11.7188 9.375C11.8733 9.375 12.0243 9.42082 12.1528 9.50667C12.2813 9.59251 12.3814 9.71452 12.4405 9.85728C12.4997 10 12.5151 10.1571 12.485 10.3087C12.4548 10.4602 12.3804 10.5994 12.2712 10.7087C12.1619 10.8179 12.0227 10.8923 11.8712 10.9225C11.7196 10.9526 11.5625 10.9372 11.4198 10.878C11.277 10.8189 11.155 10.7188 11.0692 10.5903C10.9833 10.4618 10.9375 10.3108 10.9375 10.1563C10.9378 9.94913 11.0202 9.75058 11.1666 9.60412C11.3131 9.45767 11.5116 9.37527 11.7188 9.375Z" fill="black"/>
</g>
<defs>
<clipPath id="clip0_100_409">
<rect width="50" height="50" fill="white"/>
</clipPath>
</defs>
</svg>
