<svg width="50" height="50" viewBox="0 0 50 50" fill="none" xmlns="http://www.w3.org/2000/svg">
<g clip-path="url(#clip0_86_434)">
<path d="M48.7833 28.477C48.2718 28.3491 47.7603 28.477 47.3128 28.7967C45.6504 30.2033 43.7323 31.3541 41.6224 32.1214C39.6404 32.8886 37.4666 33.2722 35.1649 33.2722C29.9861 33.2722 25.2548 31.1623 21.8662 27.7737C18.4776 24.3851 16.3677 19.6538 16.3677 14.475C16.3677 12.3012 16.7513 10.1913 17.3906 8.27317C18.0939 6.22721 19.1169 4.37307 20.4596 2.77466C21.035 2.07136 20.9071 1.04839 20.2038 0.472961C19.7563 0.15328 19.2448 0.0254074 18.7333 0.15328C13.2987 1.62381 8.56745 4.88455 5.17883 9.23221C1.91809 13.5159 0 18.8226 0 24.5769C0 31.5459 2.81319 37.8756 7.4166 42.479C12.02 47.0824 18.2857 49.8956 25.3187 49.8956C31.2008 49.8956 36.6354 47.8497 40.9831 44.461C45.3947 41.0085 48.5915 36.0854 49.9341 30.459C50.1899 29.5639 49.6784 28.6688 48.7833 28.477Z" fill="#0D0A36"/>
</g>
<defs>
<clipPath id="clip0_86_434">
<rect width="50" height="50" fill="white"/>
</clipPath>
</defs>
</svg>
