<svg width="50" height="50" viewBox="0 0 50 50" fill="none" xmlns="http://www.w3.org/2000/svg">
<path d="M45.0011 17.9737C44.7139 16.8849 44.0059 15.9548 43.0329 15.388C42.0599 14.8211 40.9016 14.6641 39.8127 14.9513L30.6915 17.3573H29.2841C30.9083 16.2159 32.1266 14.5866 32.7622 12.706C33.3979 10.8253 33.4179 8.79106 32.8193 6.89829C32.2207 5.00551 31.0346 3.35266 29.4332 2.17951C27.8317 1.00635 25.8982 0.373901 23.913 0.373901C21.9279 0.373901 19.9943 1.00635 18.3929 2.17951C16.7914 3.35266 15.6054 5.00551 15.0068 6.89829C14.4082 8.79106 14.4282 10.8253 15.0638 12.706C15.6995 14.5866 16.9178 16.2159 18.5419 17.3573H17.1345L8.01331 14.9513C6.92448 14.6641 5.76616 14.8211 4.79315 15.388C3.82013 15.9548 3.11214 16.8849 2.8249 17.9737C2.68267 18.5129 2.64803 19.0748 2.72295 19.6273C2.79787 20.1798 2.98089 20.7122 3.26155 21.194C3.54221 21.6758 3.91502 22.0976 4.3587 22.4353C4.80237 22.773 5.30822 23.02 5.84736 23.1623L12.0416 24.7962C12.7668 24.9875 13.4083 25.4134 13.8661 26.0076C14.3238 26.6017 14.572 27.3306 14.572 28.0806V32.0824C14.572 33.0105 14.3691 33.9274 13.9776 34.7689L9.90424 43.5243C9.41233 44.5373 9.34298 45.7042 9.71143 46.7683C10.0799 47.8324 10.856 48.7066 11.8689 49.1985C12.8819 49.6904 14.0488 49.7597 15.1129 49.3913C16.177 49.0228 17.0512 48.2467 17.5431 47.2338L21.3144 40.9209C21.5363 40.5412 21.8377 40.2138 22.1978 39.9613C22.558 39.7088 22.9684 39.5371 23.4011 39.4579C23.9974 39.3546 24.6111 39.4344 25.1612 39.6869C25.7113 39.9394 26.1719 40.3527 26.4823 40.8722L30.2824 47.2338C30.7743 48.2467 31.6485 49.0228 32.7126 49.3913C33.7767 49.7597 34.9436 49.6904 35.9566 49.1985C36.9696 48.7066 37.7456 47.8324 38.1141 46.7683C38.4825 45.7042 38.4132 44.5373 37.9213 43.5243L33.8485 34.7693C33.457 33.9278 33.2541 33.011 33.2541 32.0828V28.0811C33.254 27.331 33.5023 26.6021 33.96 26.008C34.4177 25.4139 35.0592 24.9879 35.7844 24.7966L41.9787 23.1627C42.5179 23.0205 43.0238 22.7734 43.4675 22.4357C43.9112 22.0979 44.284 21.6761 44.5647 21.1942C44.8453 20.7124 45.0284 20.18 45.1032 19.6274C45.1781 19.0748 45.1434 18.5129 45.0011 17.9737Z" fill="#AD6643"/>
<path d="M23.913 27.5475C24.851 27.5475 25.6114 26.7871 25.6114 25.8491C25.6114 24.9111 24.851 24.1508 23.913 24.1508C22.975 24.1508 22.2147 24.9111 22.2147 25.8491C22.2147 26.7871 22.975 27.5475 23.913 27.5475Z" fill="#35A872"/>
<path d="M23.913 34.3411C24.851 34.3411 25.6114 33.5807 25.6114 32.6427C25.6114 31.7047 24.851 30.9443 23.913 30.9443C22.975 30.9443 22.2147 31.7047 22.2147 32.6427C22.2147 33.5807 22.975 34.3411 23.913 34.3411Z" fill="#EB423F"/>
<path d="M20.5162 9.71473C20.9852 9.71473 21.3654 9.33453 21.3654 8.86554C21.3654 8.39655 20.9852 8.01636 20.5162 8.01636C20.0472 8.01636 19.6671 8.39655 19.6671 8.86554C19.6671 9.33453 20.0472 9.71473 20.5162 9.71473Z" fill="#5E3725"/>
<path d="M27.3098 9.71473C27.7788 9.71473 28.159 9.33453 28.159 8.86554C28.159 8.39655 27.7788 8.01636 27.3098 8.01636C26.8408 8.01636 26.4606 8.39655 26.4606 8.86554C26.4606 9.33453 26.8408 9.71473 27.3098 9.71473Z" fill="#5E3725"/>
<path d="M28.0693 12.6421H28.0686C28.1693 12.4408 28.1858 12.2078 28.1147 11.9943C28.0435 11.7808 27.8904 11.6043 27.6892 11.5036C27.4879 11.403 27.2548 11.3864 27.0413 11.4576C26.8278 11.5288 26.6514 11.6818 26.5507 11.8831H26.5501L26.5557 11.8725C26.5284 11.9232 25.8647 13.1126 23.9126 13.1126C21.9606 13.1126 21.297 11.9232 21.2695 11.8725L21.2752 11.8831H21.2745C21.1739 11.6818 20.9974 11.5288 20.7839 11.4576C20.5704 11.3864 20.3374 11.403 20.1361 11.5036C19.9348 11.6043 19.7817 11.7808 19.7106 11.9943C19.6394 12.2078 19.656 12.4408 19.7566 12.6421H19.756C19.7577 12.6456 19.7616 12.6527 19.7666 12.6624L19.7713 12.671C19.9137 12.9338 21.0269 14.8098 23.913 14.8098C26.7992 14.8098 27.9124 12.9338 28.0541 12.671L28.0588 12.6624C28.0634 12.653 28.0676 12.6456 28.0693 12.6421Z" fill="#5E3725"/>
<path d="M29.8573 19.0557C29.8573 19.5061 29.6784 19.9381 29.3599 20.2566C29.0414 20.5751 28.6094 20.754 28.1589 20.754C27.2209 20.754 23.913 19.9937 23.913 19.0557C23.913 18.1176 27.2209 17.3573 28.1589 17.3573C28.6094 17.3573 29.0414 17.5362 29.3599 17.8547C29.6784 18.1732 29.8573 18.6052 29.8573 19.0557Z" fill="#FBE9D8"/>
<path d="M17.9688 19.0557C17.9688 19.5061 18.1477 19.9381 18.4662 20.2566C18.7847 20.5751 19.2167 20.754 19.6671 20.754C20.6052 20.754 23.913 19.9937 23.913 19.0557C23.913 18.1176 20.6052 17.3573 19.6671 17.3573C19.2167 17.3573 18.7847 17.5362 18.4662 17.8547C18.1477 18.1732 17.9688 18.6052 17.9688 19.0557Z" fill="#FBE9D8"/>
<path d="M36.4565 40.3766L36.0266 40.6451C35.8717 40.7417 35.8483 40.8033 35.7613 41.074C35.6445 41.4413 35.4672 41.9964 34.7783 42.4274C34.0894 42.8583 33.5131 42.7734 33.1309 42.7182C32.8496 42.6768 32.7849 42.6715 32.6299 42.7681C32.4749 42.8647 32.4505 42.9263 32.3645 43.1969C32.2478 43.5642 32.0705 44.1194 31.3816 44.5503C30.6927 44.9813 30.1163 44.8964 29.7352 44.8412C29.4529 44.7998 29.3881 44.7945 29.2332 44.8911L28.9784 45.0503L28.1069 43.5918L28.333 43.4506C29.0219 43.0207 29.5983 43.1046 29.9794 43.1598C30.2617 43.2012 30.3265 43.2065 30.4815 43.1099C30.6364 43.0133 30.6598 42.9517 30.7468 42.6811C30.8636 42.3138 31.0409 41.7586 31.7298 41.3287C32.4187 40.8988 32.9951 40.9816 33.3761 41.0368C33.6585 41.0782 33.7232 41.0835 33.8782 40.9869C34.0332 40.8903 34.0565 40.8288 34.1436 40.5581C34.2603 40.1908 34.4376 39.6357 35.1265 39.2047L35.7347 38.8247L36.4565 40.3766Z" fill="#FBE9D8"/>
<path d="M38.9362 23.4174C38.8353 23.6827 38.8162 23.7454 38.8767 23.9173L38.8969 23.9757L37.2516 24.4099C37.0192 23.6827 37.2155 23.1626 37.3482 22.8144C37.4501 22.548 37.4692 22.4854 37.4077 22.3134C37.3461 22.1415 37.293 22.1054 37.0468 21.9621C36.7134 21.7678 36.2103 21.4749 35.9386 20.7095C35.6668 19.9442 35.8738 19.3997 36.0107 19.0388C36.1116 18.7723 36.1318 18.7108 36.0702 18.5377C36.0086 18.3647 35.9555 18.3297 35.7093 18.1864C35.376 17.9921 34.8718 17.6992 34.6011 16.9338L34.4047 16.3776L36.0521 15.9435L36.2018 16.366C36.2634 16.539 36.3175 16.5751 36.5627 16.7184C36.896 16.9126 37.4002 17.2056 37.6709 17.9709C37.9416 18.7362 37.7357 19.2808 37.5987 19.6417C37.4979 19.9081 37.4788 19.9697 37.5393 20.1427C37.5998 20.3157 37.655 20.3508 37.9012 20.4941C38.2345 20.6883 38.7377 20.9813 39.0084 21.7466C39.279 22.5119 39.0731 23.0565 38.9362 23.4174Z" fill="#FBE9D8"/>
<path d="M12.5563 18.8211C12.2845 19.5875 11.7814 19.8805 11.4481 20.0737C11.2018 20.217 11.1477 20.2541 11.0872 20.4261C11.0267 20.598 11.0447 20.6607 11.1466 20.926C11.2835 21.2869 11.4895 21.8315 11.2188 22.5968C10.9481 23.3621 10.4439 23.6562 10.1106 23.8493C9.86858 23.9905 9.81232 24.0277 9.75288 24.1922L8.1044 23.7581L8.14898 23.6339C8.41966 22.8685 8.92386 22.5756 9.25611 22.3813C9.50237 22.2391 9.55651 22.2019 9.61807 22.03C9.67964 21.858 9.65947 21.7954 9.55863 21.5289C9.4217 21.1691 9.21471 20.6246 9.48645 19.8592C9.75819 19.0939 10.2613 18.7999 10.5936 18.6067C10.8398 18.4634 10.894 18.4262 10.9555 18.2543C11.0171 18.0823 10.9969 18.0197 10.8961 17.7533C10.7592 17.3934 10.5522 16.8489 10.8239 16.0825L10.9502 15.7258L12.5976 16.16L12.4246 16.6493C12.3641 16.8223 12.3832 16.885 12.4841 17.1503C12.621 17.5112 12.828 18.0558 12.5563 18.8211Z" fill="#FBE9D8"/>
<path d="M19.2829 44.3211L18.4114 45.7796L18.1428 45.6119C17.4539 45.1809 17.2767 44.6258 17.1599 44.2585C17.0728 43.9878 17.0495 43.9273 16.8945 43.8297C16.7395 43.732 16.6748 43.7384 16.3935 43.7798C16.0114 43.835 15.435 43.9188 14.7461 43.4889C14.0572 43.059 13.8799 42.5028 13.7632 42.1355C13.6761 41.8648 13.6528 41.8043 13.4978 41.7067C13.3428 41.609 13.2781 41.6154 12.9957 41.6568C12.6146 41.712 12.0382 41.7959 11.3493 41.366L11.0086 41.1526L11.7304 39.6007L12.2495 39.9255C12.4045 40.0221 12.4692 40.0168 12.7516 39.9754C13.1326 39.9202 13.709 39.8364 14.3979 40.2663C15.0868 40.6962 15.2641 41.2524 15.3808 41.6196C15.4679 41.8903 15.4912 41.9519 15.6462 42.0485C15.8012 42.1451 15.8659 42.1398 16.1483 42.0984C16.5294 42.0432 17.1058 41.9593 17.7947 42.3903C18.4836 42.8212 18.6608 43.3753 18.7776 43.7426C18.8646 44.0133 18.888 44.0749 19.043 44.1714L19.2829 44.3211Z" fill="#FBE9D8"/>
</svg>
